<svg width="304" height="56" viewBox="0 0 304 56" fill="none" xmlns="http://www.w3.org/2000/svg">
<g clip-path="url(#clip0)">
<path fill-rule="evenodd" clip-rule="evenodd" d="M23.8237 0L47.5778 14.3133V42.2554L23.7541 55.9999L0 41.6865V13.7444L23.8237 0ZM6.30575 17.3864V38.1241L10.318 40.5418V19.9617L27.9 9.81825L23.7541 7.32008L6.30575 17.3864ZM34.0721 13.5373L16.6238 23.6037V44.3414L20.636 46.759V33.5765L27.8825 21.9983L38.218 16.0355L34.0721 13.5373ZM41.272 21.5535L32.3943 26.6752L26.9418 35.3871V46.8809L41.272 38.6135V21.5535Z" fill="black"/>
<path fill-rule="evenodd" clip-rule="evenodd" d="M76.2624 13.8723L86.1829 25.6164L96.2652 13.8118H102.406V41.9978L96.2652 42.1272V23.2071L87.6001 34.0722H84.7657L76.2624 23.2676V42.1877L70.1211 42.0583V13.8723H76.2624ZM189.87 20.06H189.902V13.8118H183.498L183.506 20.06H183.518V41.9288H189.87V20.06ZM207.426 38.8659H219.566L220.936 41.9978H228.377L215.835 13.8118H206.693L208.944 18.7859L198.615 41.9978H206.055L207.426 38.8659ZM210.166 32.6027L213.496 24.989L216.827 32.6027H210.166ZM112.892 41.9978H138.62V35.7339H119.324V30.9319H132.831L135.618 24.6687H119.324V20.075H138.62V13.8118H110.748L112.892 18.5094V41.9978ZM155.154 19.9188V35.8908H160.823C165.258 35.8908 168.854 32.3154 168.854 27.9048C168.854 23.4942 165.258 19.9188 160.823 19.9188H155.154ZM147.123 13.8118L149.013 17.8831V41.9978H160.823C168.65 41.9978 174.995 35.6881 174.995 27.9048C174.995 20.1215 168.65 13.8118 160.823 13.8118L147.123 13.8118Z" fill="black"/>
<path fill-rule="evenodd" clip-rule="evenodd" d="M241.598 42.1724C236.046 42.1724 235.589 38.2526 236.514 36.162L245.311 16.287H242.972L241.908 13.9498H255.145L245.315 36.162C244.893 37.1154 244.331 38.3833 245.626 39.0366C247.556 39.6672 250.793 39.5673 255.375 36.5041C257.114 32.3511 259.016 28.2519 260.846 24.1334H258.5L257.432 21.7894H270.684L264.323 36.162C263.901 37.1154 263.34 38.3833 264.635 39.0366C266.604 39.6802 269.935 39.5629 274.669 36.3106C274.791 35.3198 275.139 34.2205 275.667 33.0262L283.064 16.313H280.55L279.48 13.9498H292.91L289.253 22.2122C290.666 21.9384 292.193 21.7894 293.841 21.7894C303.947 21.7894 305.021 26.3523 302.53 31.9809C300.039 37.6095 294.926 42.1724 284.819 42.1724C278.28 42.1724 274.669 40.3231 274.62 37.1608C271.624 39.261 266.128 42.1724 260.607 42.1724C256.528 42.1724 254.395 39.6603 254.988 37.5856C251.891 39.6322 246.755 42.1724 241.598 42.1724ZM285.786 39.9885C282.417 39.9885 282.394 37.71 284.93 31.9809C287.465 26.2518 289.505 23.9733 292.874 23.9733C296.243 23.9733 296.266 26.2518 293.73 31.9809C291.194 37.71 289.155 39.9885 285.786 39.9885Z" fill="black"/>
<path d="M273.225 15.1321C272.902 17.6715 270.48 19.7301 267.815 19.7301C265.15 19.7301 263.252 17.6715 263.575 15.1321C263.898 12.5927 266.32 10.5342 268.984 10.5342C271.649 10.5342 273.548 12.5927 273.225 15.1321Z" fill="black"/>
</g>
<defs>
<clipPath id="clip0">
<rect width="303.664" height="55.9999" fill="white"/>
</clipPath>
</defs>
</svg>
