<svg width="25" height="24" viewBox="0 0 25 24" fill="none" xmlns="http://www.w3.org/2000/svg">
<path fill-rule="evenodd" clip-rule="evenodd" d="M16.6512 10.7162C16.6512 13.8732 14.0919 16.4324 10.935 16.4324C7.77798 16.4324 5.21875 13.8732 5.21875 10.7162C5.21875 7.55923 7.77798 5 10.935 5C14.0919 5 16.6512 7.55923 16.6512 10.7162ZM15.1883 17.1553C13.9688 17.9624 12.5068 18.4324 10.935 18.4324C6.67341 18.4324 3.21875 14.9777 3.21875 10.7162C3.21875 6.45466 6.67341 3 10.935 3C15.1965 3 18.6512 6.45466 18.6512 10.7162C18.6512 12.6835 17.915 14.4788 16.703 15.8417L20.9015 20.0402L19.4873 21.4544L15.1883 17.1553Z" fill="black" fill-opacity="0.8"/>
</svg>
