<svg style="display:none">
  <symbol fill="none" xmlns="http://www.w3.org/2000/svg" viewBox="0 0 24 24" id="article">
    <path stroke-width="2" d="M4 2h16v20H4zm3 4h10M7 10h6m-6 4h10M7 18h10"></path>
  </symbol>
  <symbol id="audio" viewBox="0 0 24 24" fill="none" xmlns="http://www.w3.org/2000/svg">
    <g clip-path="url(#clip0)">
      <path d="M5.44721 16.1056L5.23607 16H5H1V8H5H5.23607L5.44721 7.89443L12 4.61803V19.382L5.44721 16.1056Z" stroke-width="2"/>
      <path d="M18.0997 4.9612C19.3418 5.59137 20.3855 6.55276 21.1153 7.73907C21.8451 8.92538 22.2326 10.2904 22.235 11.6832C22.2374 13.076 21.8546 14.4424 21.1289 15.6312C20.4032 16.82 19.3629 17.785 18.123 18.4195" stroke-width="2"/>
      <path d="M15.9629 8.46114C16.5595 8.76384 17.0608 9.22563 17.4114 9.79547C17.7619 10.3653 17.9481 11.021 17.9492 11.69C17.9504 12.359 17.7665 13.0153 17.4179 13.5864C17.0694 14.1574 16.5697 14.621 15.9741 14.9257" stroke-width="2"/>
    </g>
    <defs>
      <clipPath id="clip0">
        <rect width="24" height="24" fill="white"/>
      </clipPath>
    </defs>
  </symbol>
  <symbol>
  <symbol id="photo" fill="none" xmlns="http://www.w3.org/2000/svg" viewBox="0 0 24 24">
    <path stroke-width="2" d="M3 3h18v18H3z"></path>
    <path d="M3 20.125L9.263 14 20 21" stroke-width="2"></path>
    <circle cx="15.5" cy="9.5" r="2.5" stroke-width="2"></circle>
  </symbol>
  <symbol id="video" fill="none" xmlns="http://www.w3.org/2000/svg" viewBox="0 0 24 24" >
    <circle cx="12" cy="12" r="10"  stroke-width="2"></circle>
    <path d="M15.113 12L10 15.196V8.804L15.113 12z" stroke-width="2"></path>
  </symbol>
  <symbol fill="none" xmlns="http://www.w3.org/2000/svg" viewBox="0 0 24 24" id="largeСards">
    <rect x="2" y="2" width="8" height="8" rx="2" stroke-width="2"></rect>
    <rect x="2" y="14" width="8" height="8" rx="2" stroke-width="2"></rect>
    <rect x="14" y="2" width="8" height="8" rx="2" stroke-width="2"></rect>
    <rect x="14" y="14" width="8" height="8" rx="2" stroke-width="2"></rect>
  </symbol>
  <symbol fill="none" xmlns="http://www.w3.org/2000/svg" viewBox="0 0 24 24" id="listLarge">
    <rect x="2" y="2" width="8" height="8" rx="2" stroke-width="2"></rect>
    <rect x="2" y="14" width="8" height="8" rx="2" stroke-width="2"></rect>
    <path d="M14 4h8m-8 12h8m-8-8h5m-5 12h5" stroke-width="2" stroke-linecap="round"></path>
  </symbol>
  <symbol fill="none" xmlns="http://www.w3.org/2000/svg" viewBox="0 0 24 24" id="smallСards">
    <rect x="2" y="2" width="4" height="8" rx="1" stroke-width="2"></rect>
    <rect x="2" y="14" width="4" height="8" rx="1" stroke-width="2"></rect>
    <rect x="18" y="2" width="4" height="8" rx="1" stroke-width="2"></rect>
    <rect x="18" y="14" width="4" height="8" rx="1" stroke-width="2"></rect>
    <rect x="10" y="2" width="4" height="8" rx="1" stroke-width="2"></rect>
    <rect x="10" y="14" width="4" height="8" rx="1" stroke-width="2"></rect>
  </symbol>
  <symbol fill="none" xmlns="http://www.w3.org/2000/svg" viewBox="0 0 24 24" id="listSmall">
    <rect x="2" y="18" width="4" height="4" rx="1" stroke-width="2"></rect>
    <rect x="2" y="2" width="4" height="4" rx="1" stroke-width="2"></rect>
    <rect x="2" y="10" width="4" height="4" rx="1" stroke-width="2"></rect>
    <path d="M10 18h12M10 2h12m-12 8h12M10 22h6M10 6h6m-6 8h6" stroke-width="2" stroke-linecap="round"></path>
  </symbol>
  <symbol fill="none" xmlns="http://www.w3.org/2000/svg" viewBox="0 0 32 32" id="toggleButton">
    <rect x="1" y="9" width="30" height="14" rx="7" fill="#fff" stroke="#000" stroke-width="2"></rect>
    <circle cx="8" cy="16" r="7" stroke="#000" stroke-width="2"></circle>
  </symbol>
  <symbol fill="none" xmlns="http://www.w3.org/2000/svg" viewBox="0 0 32 32" id="toggleActive">
    <rect x="1" y="9" width="30" height="14" rx="7" fill="#000" stroke="#000" stroke-width="2"></rect>
    <circle cx="24" cy="16" r="7" fill="#fff" stroke="#000" stroke-width="2"></circle>
  </symbol>
  <!-- ДЛя карточек -->
  <symbol fill="none" xmlns="http://www.w3.org/2000/svg" viewBox="0 0 24 24" id="download">
    <path d="M7 10l5 4m0 0l5-4m-5 4V5M7 18h10" stroke-width="2"></path>
  </symbol>
  <symbol fill="none" xmlns="http://www.w3.org/2000/svg" viewBox="0 0 24 24" id="publicLink">
    <rect x="5" y="10" width="14" height="12" rx="2" stroke="#828282" stroke-width="2"></rect>
    <path d="M17 11V8a5 5 0 00-5-5v0a5 5 0 00-5 5v3" stroke="#828282" stroke-width="2"></path>
    <path d="M12 14v4" stroke="#828282" stroke-width="2" stroke-linecap="round"></path>
    <circle cx="12" cy="17" r="2" fill="#828282"></circle>
  </symbol>
  <symbol fill="none" xmlns="http://www.w3.org/2000/svg" viewBox="0 0 24 24" id="share">
    <circle cx="15" cy="7" r="3" stroke="#000" stroke-width="2"></circle>
    <path d="M8.5 10.333l4-2.667m-4 6l4 2.667" stroke="#000" stroke-width="2"></path>
    <circle cx="15" cy="17" r="3" stroke="#000" stroke-width="2"></circle>
    <circle cx="7" cy="12" r="3" stroke="#000" stroke-width="2"></circle>
  </symbol>
  <symbol fill="none" xmlns="http://www.w3.org/2000/svg" viewBox="0 0 16 16" id="articles">
    <path stroke="#000" stroke-width="2" d="M2 1h12v14H2zm3 4h6M5 9h4"></path>
  </symbol>
  <symbol fill="none" xmlns="http://www.w3.org/2000/svg" viewBox="0 0 24 24" id="dots">
    <circle cx="12" cy="4" r="2" fill="#000"></circle>
    <circle cx="12" cy="20" r="2" fill="#000"></circle>
    <circle cx="12" cy="12" r="2" fill="#000"></circle>
  </symbol>
  <symbol xmlns="http://www.w3.org/2000/svg" viewBox="0 0 24 24" id="favoritesActive">
    <path d="M11.504 16.132L6 19.277V5h12v14.277l-5.504-3.145-.496-.284-.496.284z" stroke-width="2"></path>
  </symbol>
  <symbol fill="none" xmlns="http://www.w3.org/2000/svg" viewBox="0 0 11 9" id="check">
    <path d="M1 5l3 2 6-6" stroke="#fff" stroke-width="2"></path>
  </symbol>
  <symbol fill="none" xmlns="http://www.w3.org/2000/svg" viewBox="0 0 12 14" id="arrow-prev">
    <path d="M6.444 1L2 7m0 0l4.444 6M2 7h10" stroke-width="2"></path>
  </symbol>
  <symbol fill="none" xmlns="http://www.w3.org/2000/svg" viewBox="0 0 12 14" id="arrow-next">
    <path d="M5.556 1L10 7m0 0l-4.444 6M10 7H0" stroke-width="2"></path>
  </symbol>
  <symbol fill="none" xmlns="http://www.w3.org/2000/svg" viewBox="0 0 12 11" id="cross">
    <path fill-rule="evenodd" clip-rule="evenodd" d="M2.11.197L.695 1.611l3.89 3.89L.694 9.39l1.415 1.414 3.889-3.89 3.889 3.89 1.414-1.414-3.89-3.89 3.89-3.889L9.888.197l-3.89 3.89L2.11.196z" fill="#000"></path>
  </symbol>
  <symbol fill="none" xmlns="http://www.w3.org/2000/svg" viewBox="0 0 24 24" id="delete">
    <path stroke-width="2" d="M6 8h12v13H6z"></path>
    <rect x="6" y="3" width="12" height="5" rx="1" stroke-width="2"></rect>
    <path d="M14 11v7m-4-4v4" stroke-width="2"></path>
    <path d="M22 8H2" stroke-width="2" stroke-linecap="round"></path>
  </symbol>
  <symbol fill="none" xmlns="http://www.w3.org/2000/svg" viewBox="0 0 24 24" id="exit">
    <path d="M15 7.75V3H2v19h13v-4.75m3-.25l4-5m0 0l-4-5m4 5h-9" stroke-width="2"></path>
  </symbol>
  <symbol fill="none" xmlns="http://www.w3.org/2000/svg" viewBox="0 0 24 24" id="link">
    <path d="M10.452 6.786l2.118-2.119a4.781 4.781 0 016.762 0v0a4.781 4.781 0 010 6.762l-2.119 2.118M6.787 10.452l-2.12 2.118a4.781 4.781 0 000 6.762v0a4.781 4.781 0 006.762 0l2.118-2.118" stroke-width="2"></path>
    <path d="M15 8.95l-6 6"  stroke-width="2" stroke-linecap="round"></path>
  </symbol>
  <symbol fill="none" xmlns="http://www.w3.org/2000/svg" viewBox="0 0 24 24" id="profile">
    <rect x="9" y="3" width="6" height="8" rx="3" stroke-width="2"></rect>
    <path d="M19 21v-2a4 4 0 00-4-4H9a4 4 0 00-4 4v2" stroke-width="2"></path>
  </symbol>
  <symbol fill="none" xmlns="http://www.w3.org/2000/svg" viewBox="0 0 24 24" id="folderDOC">
    <path fill="#D6D6D6" d="M3 4h18v8H3z"></path>
    <path d="M3 3h4.5L13 7h8v14H3V3z" fill="#2F80ED"></path>
  </symbol>
  <symbol fill="none" xmlns="http://www.w3.org/2000/svg" viewBox="0 0 25 24" id="historyView">
    <circle cx="12.219" cy="12" r="10" stroke-width="2"></circle>
    <path d="M12.219 6v6l3 3" stroke-width="2"></path>
  </symbol>
</svg>