<svg width="231" height="32" viewBox="0 0 231 32" fill="none" xmlns="http://www.w3.org/2000/svg">
<path fill-rule="evenodd" clip-rule="evenodd" d="M6.07439 3.64746L15.8869 15.2637L25.8594 3.58763H31.9337V31.4666L25.8594 31.5946V12.8806L17.2886 23.6274H14.4851L6.07439 12.9405V31.6544L0 31.5264V3.64746H6.07439ZM118.445 9.76781H118.477V3.58763H112.143L112.15 9.76781H112.161V31.3984H118.445V9.76781ZM135.809 28.3688H147.818L149.173 31.4666H156.532L144.127 3.58763H135.085L137.311 8.50754L127.095 31.4666H134.454L135.809 28.3688ZM138.519 22.1738L141.814 14.6431L145.108 22.1738H138.519ZM42.3055 31.4666H67.7528V25.271H48.6668V20.5213H62.027L64.7836 14.3263H48.6668V9.78259H67.7528V3.58763H40.1844L42.3055 8.23402V31.4666ZM84.1069 9.62808V25.4262H89.714C94.101 25.4262 97.6574 21.8896 97.6574 17.5271C97.6574 13.1646 94.101 9.62808 89.714 9.62808H84.1069ZM76.1635 3.58764L78.0325 7.6146V31.4666H89.714C97.4558 31.4666 103.732 25.2257 103.732 17.5271C103.732 9.82856 97.4558 3.58763 89.714 3.58763L76.1635 3.58764Z" fill="black"/>
<path fill-rule="evenodd" clip-rule="evenodd" d="M169.61 31.6394C164.117 31.6394 163.666 27.7622 164.581 25.6944L173.282 6.03585H170.969L169.916 3.72412H183.009L173.285 25.6944C172.868 26.6375 172.313 27.8915 173.594 28.5377C175.502 29.1614 178.704 29.0627 183.236 26.0328C184.956 21.925 186.838 17.8704 188.648 13.7969H186.327L185.271 11.4783H198.378L192.087 25.6944C191.669 26.6375 191.114 27.8915 192.395 28.5377C194.343 29.1743 197.638 29.0583 202.32 25.8413C202.441 24.8613 202.785 23.7741 203.307 22.5928L210.624 6.06155H208.137L207.079 3.72412H220.363L216.746 11.8966C218.143 11.6257 219.653 11.4783 221.283 11.4783C231.279 11.4783 232.342 15.9915 229.878 21.5589C227.414 27.1262 222.356 31.6394 212.36 31.6394C205.892 31.6394 202.32 29.8102 202.272 26.6823C199.308 28.7597 193.872 31.6394 188.411 31.6394C184.377 31.6394 182.267 29.1546 182.853 27.1025C179.79 29.1268 174.71 31.6394 169.61 31.6394ZM213.316 29.4792C209.984 29.4792 209.961 27.2255 212.469 21.5589C214.977 15.8922 216.995 13.6385 220.327 13.6385C223.659 13.6385 223.681 15.8922 221.173 21.5589C218.666 27.2255 216.648 29.4792 213.316 29.4792Z" fill="black"/>
<path d="M200.891 4.89357C200.572 7.40528 198.176 9.44143 195.541 9.44143C192.905 9.44143 191.027 7.40528 191.347 4.89357C191.666 2.38185 194.062 0.345703 196.697 0.345703C199.333 0.345703 201.211 2.38185 200.891 4.89357Z" fill="black"/>
</svg>
